# xmcd CD database file
#
# Track frame offsets:
#	300
#	39998
#	65509
#	93181
#	122026
#	139297
#	163172
#
# Disc length: 2470 seconds
#
# Revision: 0
# Processed by: cddbd v1.5.2PL0 Copyright (c) Steve Scherf et al.
# Submitted via: CDex 1.70beta3
#
DISCID=5e09a207
DTITLE=The Modern Jazz Quartet - European Concert
DYEAR=1960
DGENRE=Jazz
TTITLE0=Pyramid (Blues For Junior)
TTITLE1=It Don't Mean A Thing (If It Ain't Got That Swing)
TTITLE2=Skating In Central Park
TTITLE3=The Cylinder
TTITLE4='Round Midnight
TTITLE5=Bags' Groove
TTITLE6=I'll Remember April
EXTD=YEAR: 1960
EXTT0=
EXTT1=
EXTT2=
EXTT3=
EXTT4=
EXTT5=
EXTT6=
PLAYORDER=
